<svg xmlns="http://www.w3.org/2000/svg" xmlns:xlink="http://www.w3.org/1999/xlink" width="500" zoomAndPan="magnify" viewBox="0 0 375 374.999991" height="500" preserveAspectRatio="xMidYMid meet" version="1.0"><defs><g/><clipPath id="9a3de0e425"><path d="M 112.5 167 L 138 167 L 138 187.574219 L 112.5 187.574219 Z M 112.5 167 " clip-rule="nonzero"/></clipPath><clipPath id="a4b716f447"><path d="M 162 89.324219 L 197 89.324219 L 197 125 L 162 125 Z M 162 89.324219 " clip-rule="nonzero"/></clipPath><clipPath id="9c2c36e8c0"><path d="M 194 174 L 212 174 L 212 187.574219 L 194 187.574219 Z M 194 174 " clip-rule="nonzero"/></clipPath><clipPath id="989b669bcf"><path d="M 232 174 L 256 174 L 256 187.574219 L 232 187.574219 Z M 232 174 " clip-rule="nonzero"/></clipPath><clipPath id="8921c37cd8"><path d="M 112.5 182 L 262.5 182 L 262.5 187.574219 L 112.5 187.574219 Z M 112.5 182 " clip-rule="nonzero"/></clipPath></defs><path fill="#8a4a34" d="M 240.003906 185.667969 C 238.628906 185.667969 237.511719 184.550781 237.511719 183.171875 L 237.511719 107.332031 C 237.511719 105.953125 238.628906 104.835938 240.003906 104.835938 C 241.378906 104.835938 242.496094 105.953125 242.496094 107.332031 L 242.496094 183.171875 C 242.496094 184.550781 241.378906 185.667969 240.003906 185.667969 " fill-opacity="1" fill-rule="nonzero"/><path fill="#4e7658" d="M 240.003906 112.183594 L 240.089844 112.324219 L 239.921875 112.324219 Z M 242.777344 126.804688 C 244.808594 130.195312 248.519531 132.300781 252.464844 132.300781 C 253.839844 132.300781 254.957031 131.183594 254.957031 129.804688 C 254.957031 128.425781 253.839844 127.304688 252.464844 127.304688 C 250.261719 127.304688 248.1875 126.128906 247.054688 124.238281 L 242.496094 116.628906 L 242.496094 116.347656 L 242.777344 116.816406 C 244.808594 120.207031 248.519531 122.3125 252.464844 122.3125 C 253.839844 122.3125 254.957031 121.195312 254.957031 119.816406 C 254.957031 118.4375 253.839844 117.320312 252.464844 117.320312 C 250.261719 117.320312 248.1875 116.144531 247.054688 114.25 L 242.140625 106.046875 C 241.691406 105.296875 240.878906 104.835938 240.003906 104.835938 C 239.128906 104.835938 238.316406 105.296875 237.867188 106.046875 L 232.957031 114.25 C 231.820312 116.144531 229.746094 117.320312 227.542969 117.320312 C 226.167969 117.320312 225.050781 118.4375 225.050781 119.816406 C 225.050781 121.195312 226.167969 122.3125 227.542969 122.3125 C 231.488281 122.3125 235.199219 120.207031 237.230469 116.816406 L 237.511719 116.347656 L 237.511719 116.628906 L 232.957031 124.238281 C 231.820312 126.128906 229.746094 127.304688 227.542969 127.304688 C 226.167969 127.304688 225.050781 128.425781 225.050781 129.804688 C 225.050781 131.183594 226.167969 132.300781 227.542969 132.300781 C 231.488281 132.300781 235.199219 130.195312 237.230469 126.804688 L 237.511719 126.332031 L 237.511719 126.617188 L 232.957031 134.222656 C 231.820312 136.117188 229.746094 137.292969 227.542969 137.292969 C 226.167969 137.292969 225.050781 138.410156 225.050781 139.789062 C 225.050781 141.167969 226.167969 142.289062 227.542969 142.289062 C 231.488281 142.289062 235.199219 140.183594 237.230469 136.792969 L 237.511719 136.320312 L 237.511719 136.601562 L 232.957031 144.210938 C 231.820312 146.105469 229.746094 147.28125 227.542969 147.28125 C 226.167969 147.28125 225.050781 148.398438 225.050781 149.777344 C 225.050781 151.15625 226.167969 152.273438 227.542969 152.273438 C 231.488281 152.273438 235.199219 150.167969 237.230469 146.78125 L 240.003906 142.148438 L 242.777344 146.78125 C 244.808594 150.167969 248.519531 152.273438 252.464844 152.273438 C 253.839844 152.273438 254.957031 151.15625 254.957031 149.777344 C 254.957031 148.398438 253.839844 147.28125 252.464844 147.28125 C 250.261719 147.28125 248.1875 146.105469 247.054688 144.210938 L 242.496094 136.601562 L 242.496094 136.320312 L 242.777344 136.792969 C 244.808594 140.183594 248.519531 142.289062 252.464844 142.289062 C 253.839844 142.289062 254.957031 141.167969 254.957031 139.789062 C 254.957031 138.410156 253.839844 137.292969 252.464844 137.292969 C 250.261719 137.292969 248.1875 136.117188 247.054688 134.222656 L 242.496094 126.617188 L 242.496094 126.332031 L 242.777344 126.804688 " fill-opacity="1" fill-rule="nonzero"/><g clip-path="url(#9a3de0e425)"><path fill="#3c5944" d="M 135.351562 175.058594 C 129.535156 179.8125 123.203125 183.617188 116.515625 186.96875 C 115.285156 187.582031 113.789062 187.082031 113.171875 185.851562 C 112.558594 184.617188 113.054688 183.117188 114.285156 182.5 C 121.871094 178.703125 128.976562 173.855469 135.339844 168.191406 L 137.832031 167.253906 L 136.242188 174.746094 L 135.351562 175.058594 " fill-opacity="1" fill-rule="nonzero"/></g><path fill="#5e9069" d="M 194.214844 172.25 L 240.003906 174.746094 L 240.003906 184.734375 L 192.65625 184.734375 L 194.214844 172.25 " fill-opacity="1" fill-rule="nonzero"/><path fill="#80c38a" d="M 127.863281 154.773438 C 120.980469 154.773438 115.402344 149.183594 115.402344 142.289062 C 115.402344 134.046875 117.03125 125.886719 120.195312 118.28125 L 127.863281 99.839844 L 135.527344 118.28125 C 138.691406 125.886719 140.320312 134.046875 140.320312 142.289062 C 140.320312 149.183594 134.742188 154.773438 127.863281 154.773438 " fill-opacity="1" fill-rule="nonzero"/><path fill="#6a3818" d="M 134.609375 134.066406 C 135.582031 133.089844 135.582031 131.511719 134.609375 130.535156 C 133.632812 129.558594 132.058594 129.558594 131.085938 130.535156 L 130.355469 131.265625 L 130.355469 122.3125 C 130.355469 120.933594 129.238281 119.816406 127.863281 119.816406 C 126.484375 119.816406 125.371094 120.933594 125.371094 122.3125 L 125.371094 137.292969 C 125.371094 137.292969 125.371094 137.292969 125.371094 137.296875 L 125.371094 138.757812 L 124.640625 138.027344 C 123.667969 137.050781 122.089844 137.050781 121.117188 138.027344 C 120.140625 139 120.140625 140.582031 121.117188 141.554688 L 125.371094 145.816406 L 125.371094 183.796875 C 125.371094 185.175781 126.484375 186.292969 127.863281 186.292969 C 129.238281 186.292969 130.355469 185.175781 130.355469 183.796875 L 130.355469 144.785156 C 130.355469 144.785156 130.355469 144.785156 130.355469 144.78125 L 130.355469 138.328125 L 134.609375 134.066406 " fill-opacity="1" fill-rule="nonzero"/><g clip-path="url(#a4b716f447)"><path fill="#f9ad2a" d="M 179.902344 107.332031 C 176.765625 101.289062 179.050781 93.867188 184.992188 90.621094 C 180.777344 89.332031 176.074219 89.628906 171.855469 91.824219 C 163.308594 96.277344 159.980469 106.828125 164.421875 115.394531 C 168.863281 123.957031 179.394531 127.292969 187.945312 122.84375 C 192.164062 120.644531 195.109375 116.960938 196.476562 112.765625 C 190.414062 115.769531 183.035156 113.375 179.902344 107.332031 " fill-opacity="1" fill-rule="nonzero"/></g><path fill="#ededed" d="M 160.257812 96.058594 L 154.847656 96.058594 C 153.820312 93.148438 151.054688 91.066406 147.796875 91.066406 C 143.667969 91.066406 140.320312 94.417969 140.320312 98.554688 C 140.320312 102.691406 143.667969 106.046875 147.796875 106.046875 L 160.257812 106.046875 C 163.011719 106.046875 165.242188 103.808594 165.242188 101.050781 C 165.242188 98.292969 163.011719 96.058594 160.257812 96.058594 " fill-opacity="1" fill-rule="nonzero"/><path fill="#ededed" d="M 222.558594 99.839844 L 217.148438 99.839844 C 216.125 96.933594 213.355469 94.847656 210.101562 94.847656 C 205.972656 94.847656 202.625 98.203125 202.625 102.339844 C 202.625 106.476562 205.972656 109.828125 210.101562 109.828125 L 222.558594 109.828125 C 225.3125 109.828125 227.542969 107.59375 227.542969 104.835938 C 227.542969 102.078125 225.3125 99.839844 222.558594 99.839844 " fill-opacity="1" fill-rule="nonzero"/><path fill="#e9951c" d="M 212.59375 122.3125 L 207.609375 122.3125 L 207.609375 117.320312 L 212.59375 117.320312 L 212.59375 122.3125 " fill-opacity="1" fill-rule="nonzero"/><path fill="#e9951c" d="M 212.59375 132.300781 L 207.609375 132.300781 L 207.609375 127.304688 L 212.59375 127.304688 L 212.59375 132.300781 " fill-opacity="1" fill-rule="nonzero"/><path fill="#e9951c" d="M 207.609375 127.304688 L 202.625 127.304688 L 202.625 122.3125 L 207.609375 122.3125 L 207.609375 127.304688 " fill-opacity="1" fill-rule="nonzero"/><path fill="#e9951c" d="M 160.257812 129.804688 L 155.273438 129.804688 L 155.273438 124.808594 L 160.257812 124.808594 L 160.257812 129.804688 " fill-opacity="1" fill-rule="nonzero"/><path fill="#e9951c" d="M 150.289062 124.808594 L 145.304688 124.808594 L 145.304688 119.816406 L 150.289062 119.816406 L 150.289062 124.808594 " fill-opacity="1" fill-rule="nonzero"/><path fill="#e9951c" d="M 217.574219 127.304688 L 212.59375 127.304688 L 212.59375 122.3125 L 217.574219 122.3125 L 217.574219 127.304688 " fill-opacity="1" fill-rule="nonzero"/><g clip-path="url(#9c2c36e8c0)"><path fill="#3c5944" d="M 197.425781 174.746094 C 201.507812 177.664062 205.808594 180.261719 210.28125 182.5 C 211.511719 183.117188 212.011719 184.617188 211.394531 185.851562 C 210.957031 186.726562 210.078125 187.230469 209.164062 187.230469 C 208.789062 187.230469 208.410156 187.144531 208.050781 186.96875 C 203.234375 184.554688 198.601562 181.742188 194.214844 178.582031 L 194.214844 174.746094 L 197.425781 174.746094 " fill-opacity="1" fill-rule="nonzero"/></g><g clip-path="url(#989b669bcf)"><path fill="#3c5944" d="M 240.617188 174.746094 C 244.960938 177.714844 249.574219 180.296875 254.410156 182.453125 C 255.667969 183.011719 256.234375 184.488281 255.675781 185.746094 C 255.261719 186.679688 254.351562 187.230469 253.398438 187.230469 C 253.058594 187.230469 252.714844 187.160156 252.386719 187.015625 C 245.148438 183.792969 238.382812 179.660156 232.238281 174.746094 L 240.617188 174.746094 " fill-opacity="1" fill-rule="nonzero"/></g><path fill="#4e7658" d="M 135.339844 168.191406 L 136.667969 167.320312 C 143.351562 162.933594 149.308594 156.582031 154.308594 150.335938 L 162.75 139.789062 L 194.214844 174.746094 L 194.214844 184.734375 L 135.339844 184.734375 L 135.339844 168.191406 " fill-opacity="1" fill-rule="nonzero"/><path fill="#3c5944" d="M 177.703125 184.734375 L 147.796875 184.734375 L 162.75 159.765625 Z M 177.703125 184.734375 " fill-opacity="1" fill-rule="nonzero"/><path fill="#5e9069" d="M 162.75 159.765625 L 182.6875 172.25 L 177.703125 184.734375 Z M 162.75 159.765625 " fill-opacity="1" fill-rule="nonzero"/><path fill="#80c38a" d="M 240.371094 174.746094 L 194.148438 174.746094 C 187.535156 169.679688 181.566406 163.785156 176.390625 157.1875 L 162.75 139.789062 L 169.945312 141.101562 C 183.269531 143.53125 196.960938 143.082031 210.101562 139.789062 L 220.753906 154.738281 C 226.234375 162.425781 232.863281 169.167969 240.371094 174.746094 " fill-opacity="1" fill-rule="nonzero"/><g clip-path="url(#8921c37cd8)"><path fill="#7d421a" d="M 262.433594 187.230469 L 112.910156 187.230469 L 112.910156 182.238281 L 262.433594 182.238281 L 262.433594 187.230469 " fill-opacity="1" fill-rule="nonzero"/></g><g fill="#3c5944" fill-opacity="1"><g transform="translate(75.913236, 235.769032)"><g><path d="M 9.4375 0.3125 C 6.394531 0.3125 4.195312 -0.4375 2.84375 -1.9375 C 1.488281 -3.445312 0.8125 -5.878906 0.8125 -9.234375 L 0.8125 -12.515625 L 7.40625 -12.515625 L 7.40625 -8.34375 C 7.40625 -6.675781 7.9375 -5.84375 9 -5.84375 C 9.59375 -5.84375 10.003906 -6.015625 10.234375 -6.359375 C 10.472656 -6.710938 10.59375 -7.304688 10.59375 -8.140625 C 10.59375 -9.234375 10.460938 -10.132812 10.203125 -10.84375 C 9.941406 -11.5625 9.609375 -12.160156 9.203125 -12.640625 C 8.804688 -13.117188 8.085938 -13.867188 7.046875 -14.890625 L 4.171875 -17.765625 C 1.929688 -19.953125 0.8125 -22.367188 0.8125 -25.015625 C 0.8125 -27.867188 1.46875 -30.039062 2.78125 -31.53125 C 4.09375 -33.03125 6.007812 -33.78125 8.53125 -33.78125 C 11.539062 -33.78125 13.707031 -32.984375 15.03125 -31.390625 C 16.363281 -29.796875 17.03125 -27.296875 17.03125 -23.890625 L 10.203125 -23.890625 L 10.171875 -26.1875 C 10.171875 -26.625 10.046875 -26.972656 9.796875 -27.234375 C 9.554688 -27.492188 9.210938 -27.625 8.765625 -27.625 C 8.242188 -27.625 7.851562 -27.476562 7.59375 -27.1875 C 7.332031 -26.90625 7.203125 -26.519531 7.203125 -26.03125 C 7.203125 -24.9375 7.828125 -23.804688 9.078125 -22.640625 L 12.984375 -18.90625 C 13.890625 -18.019531 14.640625 -17.179688 15.234375 -16.390625 C 15.835938 -15.597656 16.316406 -14.660156 16.671875 -13.578125 C 17.035156 -12.503906 17.21875 -11.226562 17.21875 -9.75 C 17.21875 -6.445312 16.613281 -3.941406 15.40625 -2.234375 C 14.195312 -0.535156 12.207031 0.3125 9.4375 0.3125 Z M 9.4375 0.3125 "/></g></g></g><g fill="#3c5944" fill-opacity="1"><g transform="translate(93.876007, 235.769032)"><g><path d="M 9.234375 0.3125 C 6.484375 0.3125 4.4375 -0.460938 3.09375 -2.015625 C 1.757812 -3.578125 1.09375 -5.894531 1.09375 -8.96875 L 1.09375 -33.46875 L 7.59375 -33.46875 L 7.59375 -9.234375 C 7.59375 -8.171875 7.695312 -7.335938 7.90625 -6.734375 C 8.113281 -6.140625 8.554688 -5.84375 9.234375 -5.84375 C 9.910156 -5.84375 10.351562 -6.132812 10.5625 -6.71875 C 10.769531 -7.300781 10.875 -8.140625 10.875 -9.234375 L 10.875 -33.46875 L 17.375 -33.46875 L 17.375 -8.96875 C 17.375 -5.894531 16.703125 -3.578125 15.359375 -2.015625 C 14.023438 -0.460938 11.984375 0.3125 9.234375 0.3125 Z M 9.234375 0.3125 "/></g></g></g><g fill="#3c5944" fill-opacity="1"><g transform="translate(112.345328, 235.769032)"><g><path d="M 1.484375 0 L 1.484375 -33.46875 L 11.6875 -33.46875 L 14.5 -13.046875 L 17.296875 -33.46875 L 27.59375 -33.46875 L 27.59375 0 L 21.46875 0 L 21.46875 -24.125 L 17.609375 0 L 11.609375 0 L 7.515625 -24.125 L 7.515625 0 Z M 1.484375 0 "/></g></g></g><g fill="#3c5944" fill-opacity="1"><g transform="translate(141.413067, 235.769032)"><g><path d="M 1.484375 0 L 1.484375 -33.46875 L 11.6875 -33.46875 L 14.5 -13.046875 L 17.296875 -33.46875 L 27.59375 -33.46875 L 27.59375 0 L 21.46875 0 L 21.46875 -24.125 L 17.609375 0 L 11.609375 0 L 7.515625 -24.125 L 7.515625 0 Z M 1.484375 0 "/></g></g></g><g fill="#3c5944" fill-opacity="1"><g transform="translate(170.480807, 235.769032)"><g><path d="M 1.484375 0 L 1.484375 -33.46875 L 14.890625 -33.46875 L 14.890625 -27 L 8.296875 -27 L 8.296875 -20.5 L 14.609375 -20.5 L 14.609375 -14.1875 L 8.296875 -14.1875 L 8.296875 -6.5 L 15.3125 -6.5 L 15.3125 0 Z M 1.484375 0 "/></g></g></g><g fill="#3c5944" fill-opacity="1"><g transform="translate(186.534304, 235.769032)"><g><path d="M 1.484375 -33.46875 L 11.765625 -33.46875 C 13.398438 -33.46875 14.664062 -33.097656 15.5625 -32.359375 C 16.457031 -31.617188 17.0625 -30.578125 17.375 -29.234375 C 17.6875 -27.898438 17.84375 -26.195312 17.84375 -24.125 C 17.84375 -22.226562 17.59375 -20.742188 17.09375 -19.671875 C 16.601562 -18.609375 15.75 -17.867188 14.53125 -17.453125 C 15.550781 -17.242188 16.285156 -16.738281 16.734375 -15.9375 C 17.191406 -15.132812 17.421875 -14.046875 17.421875 -12.671875 L 17.34375 0 L 10.796875 0 L 10.796875 -13.09375 C 10.796875 -14.03125 10.613281 -14.628906 10.25 -14.890625 C 9.882812 -15.148438 9.222656 -15.28125 8.265625 -15.28125 L 8.265625 0 L 1.484375 0 Z M 9.890625 -21.078125 C 10.828125 -21.078125 11.296875 -22.09375 11.296875 -24.125 C 11.296875 -25.007812 11.253906 -25.671875 11.171875 -26.109375 C 11.097656 -26.546875 10.957031 -26.847656 10.75 -27.015625 C 10.539062 -27.191406 10.242188 -27.28125 9.859375 -27.28125 L 8.296875 -27.28125 L 8.296875 -21.078125 Z M 9.890625 -21.078125 "/></g></g></g><g fill="#3c5944" fill-opacity="1"><g transform="translate(205.120514, 235.769032)"><g/></g></g><g fill="#3c5944" fill-opacity="1"><g transform="translate(214.238273, 235.769032)"><g><path d="M 9.28125 0.3125 C 6.832031 0.3125 4.875 -0.453125 3.40625 -1.984375 C 1.9375 -3.515625 1.203125 -5.617188 1.203125 -8.296875 L 1.203125 -23.734375 C 1.203125 -27.054688 1.863281 -29.5625 3.1875 -31.25 C 4.519531 -32.9375 6.601562 -33.78125 9.4375 -33.78125 C 11.894531 -33.78125 13.878906 -33.101562 15.390625 -31.75 C 16.898438 -30.40625 17.65625 -28.460938 17.65625 -25.921875 L 17.65625 -20.140625 L 10.984375 -20.140625 L 10.984375 -25.09375 C 10.984375 -26.050781 10.863281 -26.710938 10.625 -27.078125 C 10.394531 -27.441406 10 -27.625 9.4375 -27.625 C 8.832031 -27.625 8.421875 -27.414062 8.203125 -27 C 7.984375 -26.582031 7.875 -25.972656 7.875 -25.171875 L 7.875 -8.375 C 7.875 -7.488281 8.003906 -6.84375 8.265625 -6.4375 C 8.523438 -6.039062 8.914062 -5.84375 9.4375 -5.84375 C 10.46875 -5.84375 10.984375 -6.6875 10.984375 -8.375 L 10.984375 -14.421875 L 17.734375 -14.421875 L 17.734375 -8.109375 C 17.734375 -2.492188 14.914062 0.3125 9.28125 0.3125 Z M 9.28125 0.3125 "/></g></g></g><g fill="#3c5944" fill-opacity="1"><g transform="translate(232.707594, 235.769032)"><g><path d="M 0.578125 0 L 3.8125 -33.46875 L 15.15625 -33.46875 L 18.359375 0 L 12 0 L 11.53125 -5.421875 L 7.484375 -5.421875 L 7.09375 0 Z M 7.984375 -10.75 L 11.03125 -10.75 L 9.546875 -27.78125 L 9.234375 -27.78125 Z M 7.984375 -10.75 "/></g></g></g><g fill="#3c5944" fill-opacity="1"><g transform="translate(251.605519, 235.769032)"><g><path d="M 1.484375 0 L 1.484375 -33.46875 L 11.6875 -33.46875 L 14.5 -13.046875 L 17.296875 -33.46875 L 27.59375 -33.46875 L 27.59375 0 L 21.46875 0 L 21.46875 -24.125 L 17.609375 0 L 11.609375 0 L 7.515625 -24.125 L 7.515625 0 Z M 1.484375 0 "/></g></g></g><g fill="#3c5944" fill-opacity="1"><g transform="translate(280.673247, 235.769032)"><g><path d="M 1.484375 -33.46875 L 10.328125 -33.46875 C 13.003906 -33.46875 14.910156 -32.601562 16.046875 -30.875 C 17.191406 -29.15625 17.765625 -26.628906 17.765625 -23.296875 C 17.765625 -19.972656 17.257812 -17.46875 16.25 -15.78125 C 15.238281 -14.09375 13.421875 -13.25 10.796875 -13.25 L 8.0625 -13.25 L 8.0625 0 L 1.484375 0 Z M 8.453125 -19.296875 C 9.265625 -19.296875 9.859375 -19.441406 10.234375 -19.734375 C 10.609375 -20.035156 10.851562 -20.460938 10.96875 -21.015625 C 11.082031 -21.578125 11.140625 -22.378906 11.140625 -23.421875 C 11.140625 -24.828125 10.984375 -25.835938 10.671875 -26.453125 C 10.359375 -27.078125 9.738281 -27.390625 8.8125 -27.390625 L 8.0625 -27.390625 L 8.0625 -19.296875 Z M 8.453125 -19.296875 "/></g></g></g><g fill="#f9ad29" fill-opacity="1"><g transform="translate(169.190413, 266.773898)"><g><path d="M 2.332031 -0.40625 C 4.761719 -1.164062 6.128906 -1.113281 8.207031 -0.355469 C 9.042969 -0.0507812 9.015625 -1.34375 8.613281 -1.644531 C 7.140625 -2.734375 4.914062 -2.785156 3.648438 -2.632812 C 5.421875 -5.167969 7.546875 -7.777344 7.699219 -10.992188 C 7.777344 -12.664062 7.191406 -14.132812 5.140625 -14.132812 C 3.597656 -14.105469 2.152344 -13.070312 1.113281 -12.207031 C -0.0742188 -11.195312 1.140625 -9.21875 2.230469 -10.359375 C 2.785156 -10.96875 3.394531 -11.652344 4.128906 -12.105469 C 5.519531 -12.941406 6.078125 -12.105469 6.15625 -10.96875 C 6.304688 -8.308594 3.140625 -4.078125 1.265625 -2.429688 C -0.355469 -1.011719 1.621094 -0.175781 2.332031 -0.40625 Z M 2.332031 -0.40625 "/></g></g></g><g fill="#f9ad29" fill-opacity="1"><g transform="translate(178.737623, 266.773898)"><g><path d="M 3.902344 -11.296875 C 4.964844 -13.371094 6.179688 -9.117188 5.824219 -6.003906 C 5.394531 -2 3.417969 0.304688 2.734375 -3.015625 C 2.152344 -5.824219 2.355469 -8.230469 3.902344 -11.296875 Z M 7.292969 -8.484375 C 7.292969 -11.472656 5.851562 -11.929688 5.371094 -12.738281 C 4.914062 -13.574219 4.304688 -13.625 3.621094 -13.574219 C 2.785156 -13.5 2.179688 -12.082031 1.847656 -11.398438 C 1.039062 -9.675781 -0.226562 -4.535156 1.445312 -1.570312 C 2.28125 -0.0507812 3.949219 0.785156 5.394531 -0.582031 C 6.839844 -2.050781 7.320312 -6.003906 7.292969 -8.484375 Z M 7.292969 -8.484375 "/></g></g></g><g fill="#f9ad29" fill-opacity="1"><g transform="translate(186.689412, 266.773898)"><g><path d="M 2.332031 -0.40625 C 4.761719 -1.164062 6.128906 -1.113281 8.207031 -0.355469 C 9.042969 -0.0507812 9.015625 -1.34375 8.613281 -1.644531 C 7.140625 -2.734375 4.914062 -2.785156 3.648438 -2.632812 C 5.421875 -5.167969 7.546875 -7.777344 7.699219 -10.992188 C 7.777344 -12.664062 7.191406 -14.132812 5.140625 -14.132812 C 3.597656 -14.105469 2.152344 -13.070312 1.113281 -12.207031 C -0.0742188 -11.195312 1.140625 -9.21875 2.230469 -10.359375 C 2.785156 -10.96875 3.394531 -11.652344 4.128906 -12.105469 C 5.519531 -12.941406 6.078125 -12.105469 6.15625 -10.96875 C 6.304688 -8.308594 3.140625 -4.078125 1.265625 -2.429688 C -0.355469 -1.011719 1.621094 -0.175781 2.332031 -0.40625 Z M 2.332031 -0.40625 "/></g></g></g><g fill="#f9ad29" fill-opacity="1"><g transform="translate(196.236622, 266.773898)"><g><path d="M 2.332031 -0.40625 C 4.761719 -1.164062 6.128906 -1.113281 8.207031 -0.355469 C 9.042969 -0.0507812 9.015625 -1.34375 8.613281 -1.644531 C 7.140625 -2.734375 4.914062 -2.785156 3.648438 -2.632812 C 5.421875 -5.167969 7.546875 -7.777344 7.699219 -10.992188 C 7.777344 -12.664062 7.191406 -14.132812 5.140625 -14.132812 C 3.597656 -14.105469 2.152344 -13.070312 1.113281 -12.207031 C -0.0742188 -11.195312 1.140625 -9.21875 2.230469 -10.359375 C 2.785156 -10.96875 3.394531 -11.652344 4.128906 -12.105469 C 5.519531 -12.941406 6.078125 -12.105469 6.15625 -10.96875 C 6.304688 -8.308594 3.140625 -4.078125 1.265625 -2.429688 C -0.355469 -1.011719 1.621094 -0.175781 2.332031 -0.40625 Z M 2.332031 -0.40625 "/></g></g></g><g fill="#3c5944" fill-opacity="1"><g transform="translate(117.423275, 289.450763)"><g><path d="M 5.484375 0.75 L 6.3125 -0.828125 L 8.40625 0.28125 L 7.71875 1.609375 C 6.988281 2.992188 5.972656 3.34375 4.671875 2.65625 L 2.671875 1.609375 C 1.359375 0.921875 1.066406 -0.113281 1.796875 -1.5 L 5.140625 -7.875 C 5.878906 -9.269531 6.90625 -9.625 8.21875 -8.9375 L 10.21875 -7.890625 C 11.519531 -7.203125 11.800781 -6.160156 11.0625 -4.765625 L 10.5625 -3.796875 L 8.46875 -4.90625 L 9.125 -6.15625 C 9.164062 -6.238281 9.171875 -6.320312 9.140625 -6.40625 C 9.109375 -6.5 9.050781 -6.566406 8.96875 -6.609375 L 7.96875 -7.140625 C 7.894531 -7.179688 7.8125 -7.1875 7.71875 -7.15625 C 7.625 -7.132812 7.554688 -7.082031 7.515625 -7 L 3.875 -0.09375 C 3.832031 -0.0078125 3.828125 0.078125 3.859375 0.171875 C 3.890625 0.265625 3.941406 0.332031 4.015625 0.375 L 5.015625 0.90625 C 5.097656 0.945312 5.1875 0.953125 5.28125 0.921875 C 5.375 0.890625 5.441406 0.832031 5.484375 0.75 Z M 5.484375 0.75 "/></g></g></g><g fill="#3c5944" fill-opacity="1"><g transform="translate(124.976075, 293.414694)"><g><path d="M 5.046875 -2.921875 L 3.09375 1.390625 L 0.8125 0.359375 L 5.578125 -10.171875 L 9.640625 -8.328125 C 10.972656 -7.722656 11.3125 -6.707031 10.65625 -5.28125 L 10.109375 -4.046875 C 9.710938 -3.179688 9.15625 -2.769531 8.4375 -2.8125 C 8.894531 -2.375 8.96875 -1.804688 8.65625 -1.109375 L 6.765625 3.0625 L 4.484375 2.03125 L 6.28125 -1.953125 C 6.382812 -2.171875 6.335938 -2.328125 6.140625 -2.421875 Z M 7.15625 -7.59375 L 5.765625 -4.515625 L 6.96875 -3.96875 C 7.050781 -3.925781 7.132812 -3.925781 7.21875 -3.96875 C 7.3125 -4.007812 7.375 -4.070312 7.40625 -4.15625 L 8.5 -6.578125 C 8.539062 -6.660156 8.546875 -6.75 8.515625 -6.84375 C 8.492188 -6.9375 8.441406 -7.003906 8.359375 -7.046875 Z M 7.15625 -7.59375 "/></g></g></g><g fill="#3c5944" fill-opacity="1"><g transform="translate(132.81459, 296.920904)"><g><path d="M 3.90625 -0.71875 L 6.484375 0.28125 L 5.734375 2.21875 L 0.828125 0.328125 L 5 -10.453125 L 9.90625 -8.5625 L 9.171875 -6.65625 L 6.59375 -7.65625 L 5.609375 -5.125 L 8.03125 -4.1875 L 7.328125 -2.359375 L 4.90625 -3.296875 Z M 3.90625 -0.71875 "/></g></g></g><g fill="#3c5944" fill-opacity="1"><g transform="translate(139.376144, 299.481027)"><g><path d="M 8.828125 -9.484375 C 10.234375 -9.023438 10.695312 -8.046875 10.21875 -6.546875 L 7.328125 2.375 L 4.953125 1.609375 L 6.140625 -2.078125 L 4.40625 -2.640625 L 3.21875 1.046875 L 0.84375 0.28125 L 3.734375 -8.640625 C 4.210938 -10.140625 5.15625 -10.664062 6.5625 -10.21875 Z M 5 -4.46875 L 6.734375 -3.90625 L 7.9375 -7.609375 C 7.96875 -7.691406 7.957031 -7.773438 7.90625 -7.859375 C 7.863281 -7.953125 7.800781 -8.015625 7.71875 -8.046875 L 6.640625 -8.390625 C 6.554688 -8.421875 6.46875 -8.410156 6.375 -8.359375 C 6.289062 -8.316406 6.234375 -8.253906 6.203125 -8.171875 Z M 5 -4.46875 "/></g></g></g><g fill="#3c5944" fill-opacity="1"><g transform="translate(147.939198, 302.215126)"><g><path d="M 2.625 -9.0625 L 3.171875 -11.125 L 9.203125 -9.546875 L 8.65625 -7.484375 L 6.84375 -7.953125 L 4.453125 1.171875 L 2.046875 0.53125 L 4.4375 -8.59375 Z M 2.625 -9.0625 "/></g></g></g><g fill="#3c5944" fill-opacity="1"><g transform="translate(154.686241, 303.956143)"><g><path d="M 5.796875 -10.5625 L 3.3125 0.734375 L 0.875 0.1875 L 3.359375 -11.109375 Z M 5.796875 -10.5625 "/></g></g></g><g fill="#3c5944" fill-opacity="1"><g transform="translate(159.198047, 304.986316)"><g><path d="M 7.421875 -10.453125 L 9.8125 -10.046875 L 5.5 0.9375 L 2.671875 0.453125 L 2.25 -11.34375 L 4.640625 -10.921875 L 4.609375 -2.375 Z M 7.421875 -10.453125 "/></g></g></g><g fill="#3c5944" fill-opacity="1"><g transform="translate(167.703175, 306.411306)"><g><path d="M 3.609375 -1.671875 L 6.34375 -1.359375 L 6.109375 0.703125 L 0.890625 0.109375 L 2.21875 -11.375 L 7.4375 -10.78125 L 7.203125 -8.75 L 4.46875 -9.0625 L 4.15625 -6.359375 L 6.71875 -6.0625 L 6.484375 -4.125 L 3.921875 -4.421875 Z M 3.609375 -1.671875 "/></g></g></g><g fill="#3c5944" fill-opacity="1"><g transform="translate(174.595143, 307.171213)"><g/></g></g><g fill="#3c5944" fill-opacity="1"><g transform="translate(178.449357, 307.51859)"><g><path d="M 5.859375 -11.5625 C 7.335938 -11.507812 8.050781 -10.695312 8 -9.125 L 7.703125 0.25 L 5.203125 0.171875 L 5.328125 -3.703125 L 3.515625 -3.765625 L 3.390625 0.109375 L 0.890625 0.03125 L 1.1875 -9.34375 C 1.238281 -10.914062 2.003906 -11.679688 3.484375 -11.640625 Z M 3.578125 -5.6875 L 5.390625 -5.625 L 5.515625 -9.515625 C 5.515625 -9.609375 5.476562 -9.691406 5.40625 -9.765625 C 5.34375 -9.835938 5.265625 -9.875 5.171875 -9.875 L 4.046875 -9.90625 C 3.953125 -9.914062 3.867188 -9.882812 3.796875 -9.8125 C 3.734375 -9.75 3.703125 -9.671875 3.703125 -9.578125 Z M 3.578125 -5.6875 "/></g></g></g><g fill="#3c5944" fill-opacity="1"><g transform="translate(187.476297, 307.794313)"><g><path d="M 5.125 -11.734375 C 6.601562 -11.785156 7.363281 -11.023438 7.40625 -9.453125 L 7.625 -2.609375 C 7.675781 -1.035156 6.960938 -0.222656 5.484375 -0.171875 L 0.890625 -0.03125 L 0.53125 -11.59375 Z M 5.140625 -2.25 L 4.90625 -9.671875 C 4.894531 -9.765625 4.851562 -9.84375 4.78125 -9.90625 C 4.71875 -9.976562 4.640625 -10.015625 4.546875 -10.015625 L 3.078125 -9.96875 L 3.34375 -1.828125 L 4.8125 -1.875 C 4.90625 -1.875 4.984375 -1.910156 5.046875 -1.984375 C 5.109375 -2.054688 5.140625 -2.144531 5.140625 -2.25 Z M 5.140625 -2.25 "/></g></g></g><g fill="#3c5944" fill-opacity="1"><g transform="translate(196.494475, 307.491859)"><g><path d="M 4.4375 -12.03125 L 6.859375 -12.265625 L 5.546875 -0.515625 L 2.6875 -0.25 L -0.78125 -11.546875 L 1.640625 -11.765625 L 3.828125 -3.5 Z M 4.4375 -12.03125 "/></g></g></g><g fill="#3c5944" fill-opacity="1"><g transform="translate(205.077382, 306.654099)"><g><path d="M 3.046875 -2.5625 L 5.78125 -2.96875 L 6.09375 -0.90625 L 0.875 -0.125 L -0.84375 -11.5625 L 4.375 -12.34375 L 4.6875 -10.3125 L 1.953125 -9.90625 L 2.34375 -7.21875 L 4.90625 -7.609375 L 5.203125 -5.6875 L 2.640625 -5.296875 Z M 3.046875 -2.5625 "/></g></g></g><g fill="#3c5944" fill-opacity="1"><g transform="translate(212.036864, 305.623181)"><g><path d="M 7.359375 -1.515625 L 4.90625 -1.015625 L 2.96875 -10.40625 C 2.945312 -10.5 2.898438 -10.578125 2.828125 -10.640625 C 2.753906 -10.703125 2.664062 -10.722656 2.5625 -10.703125 L 1.625 -10.5 C 1.53125 -10.476562 1.457031 -10.425781 1.40625 -10.34375 C 1.363281 -10.257812 1.351562 -10.171875 1.375 -10.078125 L 3.3125 -0.6875 L 0.859375 -0.171875 L -1.03125 -9.359375 C -1.351562 -10.890625 -0.789062 -11.804688 0.65625 -12.109375 L 2.8125 -12.5625 C 4.257812 -12.851562 5.144531 -12.234375 5.46875 -10.703125 Z M 7.359375 -1.515625 "/></g></g></g><g fill="#3c5944" fill-opacity="1"><g transform="translate(220.476205, 303.847571)"><g><path d="M -2.203125 -9.1875 L -2.734375 -11.234375 L 3.3125 -12.828125 L 3.84375 -10.78125 L 2.03125 -10.3125 L 4.453125 -1.1875 L 2.03125 -0.546875 L -0.390625 -9.671875 Z M -2.203125 -9.1875 "/></g></g></g><g fill="#3c5944" fill-opacity="1"><g transform="translate(227.298752, 302.053772)"><g><path d="M 1.1875 -12.546875 L 3.5625 -13.328125 L 6.46875 -4.390625 C 6.945312 -2.910156 6.484375 -1.941406 5.078125 -1.484375 L 2.984375 -0.796875 C 1.578125 -0.335938 0.632812 -0.847656 0.15625 -2.328125 L -2.75 -11.265625 L -0.375 -12.046875 L 2.59375 -2.921875 C 2.625 -2.828125 2.679688 -2.753906 2.765625 -2.703125 C 2.859375 -2.660156 2.945312 -2.65625 3.03125 -2.6875 L 3.9375 -2.96875 C 4.039062 -3 4.109375 -3.054688 4.140625 -3.140625 C 4.179688 -3.234375 4.1875 -3.328125 4.15625 -3.421875 Z M 1.1875 -12.546875 "/></g></g></g><g fill="#3c5944" fill-opacity="1"><g transform="translate(235.563757, 299.355918)"><g><path d="M 1.421875 -5.640625 L 3.15625 -1.234375 L 0.828125 -0.328125 L -3.40625 -11.09375 L 0.734375 -12.71875 C 2.097656 -13.257812 3.066406 -12.796875 3.640625 -11.328125 L 4.140625 -10.078125 C 4.484375 -9.179688 4.394531 -8.488281 3.875 -8 C 4.5 -8.03125 4.953125 -7.691406 5.234375 -6.984375 L 6.90625 -2.71875 L 4.578125 -1.796875 L 2.96875 -5.875 C 2.882812 -6.09375 2.742188 -6.164062 2.546875 -6.09375 Z M -0.453125 -10.40625 L 0.78125 -7.265625 L 2.015625 -7.765625 C 2.097656 -7.796875 2.15625 -7.851562 2.1875 -7.9375 C 2.226562 -8.03125 2.234375 -8.125 2.203125 -8.21875 L 1.21875 -10.6875 C 1.1875 -10.769531 1.125 -10.832031 1.03125 -10.875 C 0.945312 -10.925781 0.863281 -10.9375 0.78125 -10.90625 Z M -0.453125 -10.40625 "/></g></g></g><g fill="#3c5944" fill-opacity="1"><g transform="translate(243.543438, 296.183925)"><g><path d="M 2.21875 -3.296875 L 4.734375 -4.453125 L 5.59375 -2.5625 L 0.8125 -0.375 L -4 -10.890625 L 0.78125 -13.078125 L 1.625 -11.21875 L -0.890625 -10.0625 L 0.25 -7.578125 L 2.609375 -8.671875 L 3.421875 -6.90625 L 1.0625 -5.8125 Z M 2.21875 -3.296875 "/></g></g></g><g fill="#3c5944" fill-opacity="1"><g transform="translate(249.940231, 293.260587)"><g><path d="M 2.484375 -10.9375 L 0.390625 -9.828125 L -0.03125 -10.640625 C -0.0820312 -10.722656 -0.148438 -10.78125 -0.234375 -10.8125 C -0.328125 -10.84375 -0.414062 -10.835938 -0.5 -10.796875 L -1.375 -10.34375 C -1.457031 -10.289062 -1.507812 -10.21875 -1.53125 -10.125 C -1.5625 -10.03125 -1.550781 -9.941406 -1.5 -9.859375 L -0.546875 -8.046875 C -0.503906 -7.960938 -0.4375 -7.898438 -0.34375 -7.859375 C -0.25 -7.828125 -0.160156 -7.835938 -0.078125 -7.890625 L 1.359375 -8.640625 C 2.660156 -9.304688 3.671875 -8.953125 4.390625 -7.578125 L 5.546875 -5.375 C 6.273438 -3.988281 5.992188 -2.957031 4.703125 -2.28125 L 2.828125 -1.296875 C 1.515625 -0.609375 0.492188 -0.957031 -0.234375 -2.34375 L -0.796875 -3.40625 L 1.3125 -4.5 L 1.921875 -3.375 C 1.960938 -3.289062 2.023438 -3.226562 2.109375 -3.1875 C 2.203125 -3.15625 2.289062 -3.164062 2.375 -3.21875 L 3.359375 -3.734375 C 3.441406 -3.773438 3.492188 -3.84375 3.515625 -3.9375 C 3.546875 -4.03125 3.539062 -4.117188 3.5 -4.203125 L 2.4375 -6.203125 C 2.394531 -6.285156 2.328125 -6.34375 2.234375 -6.375 C 2.140625 -6.414062 2.050781 -6.414062 1.96875 -6.375 L 0.546875 -5.625 C -0.765625 -4.9375 -1.785156 -5.289062 -2.515625 -6.6875 L -3.578125 -8.71875 C -4.316406 -10.113281 -4.03125 -11.15625 -2.71875 -11.84375 L -0.96875 -12.765625 C 0.332031 -13.453125 1.351562 -13.097656 2.09375 -11.703125 Z M 2.484375 -10.9375 "/></g></g></g><path stroke-linecap="butt" transform="matrix(0.751337, 0, 0, 0.75, 157.924096, 274.737872)" fill="none" stroke-linejoin="miter" d="M 0.00224336 1.000545 L 78.866823 1.000545 " stroke="#3c5944" stroke-width="2" stroke-opacity="1" stroke-miterlimit="4"/><g fill="#3c5944" fill-opacity="1"><g transform="translate(153.046043, 70.723589)"><g><path d="M 0.578125 0 L 3.8125 -33.46875 L 15.15625 -33.46875 L 18.359375 0 L 12 0 L 11.53125 -5.421875 L 7.484375 -5.421875 L 7.09375 0 Z M 7.984375 -10.75 L 11.03125 -10.75 L 9.546875 -27.78125 L 9.234375 -27.78125 Z M 7.984375 -10.75 "/></g></g></g><g fill="#3c5944" fill-opacity="1"><g transform="translate(171.943968, 70.723589)"><g><path d="M 1.484375 0 L 1.484375 -33.46875 L 8.1875 -33.46875 L 8.1875 -5.6875 L 15.078125 -5.6875 L 15.078125 0 Z M 1.484375 0 "/></g></g></g><g fill="#3c5944" fill-opacity="1"><g transform="translate(187.412991, 70.723589)"><g><path d="M 1.484375 0 L 1.484375 -33.46875 L 14.890625 -33.46875 L 14.890625 -27 L 8.296875 -27 L 8.296875 -20.5 L 14.609375 -20.5 L 14.609375 -14.1875 L 8.296875 -14.1875 L 8.296875 -6.5 L 15.3125 -6.5 L 15.3125 0 Z M 1.484375 0 "/></g></g></g><g fill="#3c5944" fill-opacity="1"><g transform="translate(203.466488, 70.723589)"><g><path d="M 9.234375 0.3125 C 6.484375 0.3125 4.4375 -0.460938 3.09375 -2.015625 C 1.757812 -3.578125 1.09375 -5.894531 1.09375 -8.96875 L 1.09375 -33.46875 L 7.59375 -33.46875 L 7.59375 -9.234375 C 7.59375 -8.171875 7.695312 -7.335938 7.90625 -6.734375 C 8.113281 -6.140625 8.554688 -5.84375 9.234375 -5.84375 C 9.910156 -5.84375 10.351562 -6.132812 10.5625 -6.71875 C 10.769531 -7.300781 10.875 -8.140625 10.875 -9.234375 L 10.875 -33.46875 L 17.375 -33.46875 L 17.375 -8.96875 C 17.375 -5.894531 16.703125 -3.578125 15.359375 -2.015625 C 14.023438 -0.460938 11.984375 0.3125 9.234375 0.3125 Z M 9.234375 0.3125 "/></g></g></g></svg>