<svg xmlns="http://www.w3.org/2000/svg" xmlns:xlink="http://www.w3.org/1999/xlink" width="500" zoomAndPan="magnify" viewBox="0 0 375 374.999991" height="500" preserveAspectRatio="xMidYMid meet" version="1.0"><defs><g/><clipPath id="e555fb9bdc"><path d="M 92 224 L 125 224 L 125 250.441406 L 92 250.441406 Z M 92 224 " clip-rule="nonzero"/></clipPath><clipPath id="d6b0125b4a"><path d="M 155 125.191406 L 200 125.191406 L 200 171 L 155 171 Z M 155 125.191406 " clip-rule="nonzero"/></clipPath><clipPath id="266bb3a40f"><path d="M 196 234 L 219 234 L 219 250.441406 L 196 250.441406 Z M 196 234 " clip-rule="nonzero"/></clipPath><clipPath id="bdecb706ac"><path d="M 244 234 L 275 234 L 275 250.441406 L 244 250.441406 Z M 244 234 " clip-rule="nonzero"/></clipPath><clipPath id="f76ddbb24d"><path d="M 92 243 L 283.230469 243 L 283.230469 250.441406 L 92 250.441406 Z M 92 243 " clip-rule="nonzero"/></clipPath></defs><path fill="#8a4a34" d="M 254.542969 248.015625 C 252.789062 248.015625 251.367188 246.589844 251.367188 244.832031 L 251.367188 148.148438 C 251.367188 146.390625 252.789062 144.96875 254.542969 144.96875 C 256.300781 144.96875 257.722656 146.390625 257.722656 148.148438 L 257.722656 244.832031 C 257.722656 246.589844 256.300781 248.015625 254.542969 248.015625 " fill-opacity="1" fill-rule="nonzero"/><path fill="#4e7658" d="M 254.542969 154.335938 L 254.652344 154.515625 L 254.4375 154.515625 Z M 258.082031 172.976562 C 260.667969 177.296875 265.402344 179.980469 270.429688 179.980469 C 272.183594 179.980469 273.609375 178.554688 273.609375 176.796875 C 273.609375 175.039062 272.183594 173.613281 270.429688 173.613281 C 267.621094 173.613281 264.976562 172.113281 263.53125 169.699219 L 257.722656 160 L 257.722656 159.640625 L 258.082031 160.242188 C 260.667969 164.5625 265.402344 167.246094 270.429688 167.246094 C 272.183594 167.246094 273.609375 165.824219 273.609375 164.066406 C 273.609375 162.308594 272.183594 160.882812 270.429688 160.882812 C 267.621094 160.882812 264.976562 159.382812 263.53125 156.96875 L 257.269531 146.511719 C 256.695312 145.554688 255.660156 144.96875 254.542969 144.96875 C 253.429688 144.96875 252.394531 145.554688 251.820312 146.511719 L 245.558594 156.96875 C 244.109375 159.382812 241.46875 160.882812 238.65625 160.882812 C 236.902344 160.882812 235.480469 162.308594 235.480469 164.066406 C 235.480469 165.824219 236.902344 167.246094 238.65625 167.246094 C 243.6875 167.246094 248.417969 164.5625 251.007812 160.242188 L 251.367188 159.640625 L 251.367188 160 L 245.558594 169.699219 C 244.109375 172.113281 241.46875 173.613281 238.65625 173.613281 C 236.902344 173.613281 235.480469 175.039062 235.480469 176.796875 C 235.480469 178.554688 236.902344 179.980469 238.65625 179.980469 C 243.6875 179.980469 248.417969 177.296875 251.007812 172.976562 L 251.367188 172.375 L 251.367188 172.734375 L 245.558594 182.433594 C 244.109375 184.847656 241.46875 186.347656 238.65625 186.347656 C 236.902344 186.347656 235.480469 187.769531 235.480469 189.527344 C 235.480469 191.285156 236.902344 192.710938 238.65625 192.710938 C 243.6875 192.710938 248.417969 190.027344 251.007812 185.707031 L 251.367188 185.105469 L 251.367188 185.464844 L 245.558594 195.164062 C 244.109375 197.578125 241.46875 199.078125 238.65625 199.078125 C 236.902344 199.078125 235.480469 200.503906 235.480469 202.261719 C 235.480469 204.019531 236.902344 205.445312 238.65625 205.445312 C 243.6875 205.445312 248.417969 202.757812 251.007812 198.4375 L 254.542969 192.53125 L 258.082031 198.4375 C 260.667969 202.757812 265.402344 205.445312 270.429688 205.445312 C 272.183594 205.445312 273.609375 204.019531 273.609375 202.261719 C 273.609375 200.503906 272.183594 199.078125 270.429688 199.078125 C 267.621094 199.078125 264.976562 197.578125 263.53125 195.164062 L 257.722656 185.464844 L 257.722656 185.105469 L 258.082031 185.707031 C 260.667969 190.027344 265.402344 192.710938 270.429688 192.710938 C 272.183594 192.710938 273.609375 191.285156 273.609375 189.527344 C 273.609375 187.769531 272.183594 186.347656 270.429688 186.347656 C 267.621094 186.347656 264.976562 184.847656 263.53125 182.433594 L 257.722656 172.734375 L 257.722656 172.375 L 258.082031 172.976562 " fill-opacity="1" fill-rule="nonzero"/><g clip-path="url(#e555fb9bdc)"><path fill="#3c5944" d="M 121.117188 234.488281 C 113.703125 240.546875 105.628906 245.398438 97.101562 249.667969 C 95.53125 250.457031 93.625 249.816406 92.839844 248.246094 C 92.054688 246.671875 92.691406 244.761719 94.261719 243.976562 C 103.933594 239.132812 112.988281 232.953125 121.101562 225.734375 L 124.277344 224.542969 L 122.253906 234.089844 L 121.117188 234.488281 " fill-opacity="1" fill-rule="nonzero"/></g><path fill="#5e9069" d="M 196.164062 230.90625 L 254.542969 234.089844 L 254.542969 246.820312 L 194.175781 246.820312 L 196.164062 230.90625 " fill-opacity="1" fill-rule="nonzero"/><path fill="#80c38a" d="M 111.566406 208.625 C 102.796875 208.625 95.683594 201.5 95.683594 192.710938 C 95.683594 182.207031 97.757812 171.804688 101.792969 162.105469 L 111.566406 138.601562 L 121.34375 162.105469 C 125.378906 171.804688 127.453125 182.207031 127.453125 192.710938 C 127.453125 201.5 120.339844 208.625 111.566406 208.625 " fill-opacity="1" fill-rule="nonzero"/><path fill="#6a3818" d="M 120.167969 182.230469 C 121.410156 180.988281 121.410156 178.972656 120.167969 177.730469 C 118.929688 176.484375 116.917969 176.484375 115.675781 177.730469 L 114.746094 178.660156 L 114.746094 167.246094 C 114.746094 165.488281 113.324219 164.066406 111.566406 164.066406 C 109.8125 164.066406 108.390625 165.488281 108.390625 167.246094 L 108.390625 186.34375 C 108.390625 186.347656 108.390625 186.347656 108.390625 186.347656 L 108.390625 188.210938 L 107.460938 187.277344 C 106.21875 186.035156 104.207031 186.035156 102.96875 187.277344 C 101.726562 188.523438 101.726562 190.535156 102.96875 191.777344 L 108.390625 197.210938 L 108.390625 245.628906 C 108.390625 247.386719 109.8125 248.8125 111.566406 248.8125 C 113.324219 248.8125 114.746094 247.386719 114.746094 245.628906 L 114.746094 187.664062 L 120.167969 182.230469 " fill-opacity="1" fill-rule="nonzero"/><g clip-path="url(#d6b0125b4a)"><path fill="#f9ad2a" d="M 177.914062 148.152344 C 173.917969 140.449219 176.832031 130.984375 184.40625 126.84375 C 179.03125 125.203125 173.039062 125.582031 167.660156 128.378906 C 156.757812 134.054688 152.515625 147.507812 158.179688 158.425781 C 163.84375 169.34375 177.269531 173.597656 188.171875 167.921875 C 193.550781 165.121094 197.304688 160.425781 199.050781 155.074219 C 191.316406 158.90625 181.910156 155.855469 177.914062 148.152344 " fill-opacity="1" fill-rule="nonzero"/></g><path fill="#ededed" d="M 152.871094 133.777344 L 145.972656 133.777344 C 144.664062 130.070312 141.136719 127.414062 136.984375 127.414062 C 131.722656 127.414062 127.453125 131.6875 127.453125 136.960938 C 127.453125 142.234375 131.722656 146.511719 136.984375 146.511719 L 152.871094 146.511719 C 156.382812 146.511719 159.226562 143.660156 159.226562 140.144531 C 159.226562 136.628906 156.382812 133.777344 152.871094 133.777344 " fill-opacity="1" fill-rule="nonzero"/><path fill="#ededed" d="M 232.304688 138.601562 L 225.40625 138.601562 C 224.097656 134.894531 220.566406 132.234375 216.417969 132.234375 C 211.152344 132.234375 206.886719 136.511719 206.886719 141.785156 C 206.886719 147.058594 211.152344 151.332031 216.417969 151.332031 L 232.304688 151.332031 C 235.8125 151.332031 238.65625 148.484375 238.65625 144.96875 C 238.65625 141.453125 235.8125 138.601562 232.304688 138.601562 " fill-opacity="1" fill-rule="nonzero"/><path fill="#e9951c" d="M 219.59375 167.246094 L 213.238281 167.246094 L 213.238281 160.882812 L 219.59375 160.882812 L 219.59375 167.246094 " fill-opacity="1" fill-rule="nonzero"/><path fill="#e9951c" d="M 219.59375 179.980469 L 213.238281 179.980469 L 213.238281 173.613281 L 219.59375 173.613281 L 219.59375 179.980469 " fill-opacity="1" fill-rule="nonzero"/><path fill="#e9951c" d="M 213.238281 173.613281 L 206.886719 173.613281 L 206.886719 167.246094 L 213.238281 167.246094 L 213.238281 173.613281 " fill-opacity="1" fill-rule="nonzero"/><path fill="#e9951c" d="M 152.871094 176.796875 L 146.519531 176.796875 L 146.519531 170.429688 L 152.871094 170.429688 L 152.871094 176.796875 " fill-opacity="1" fill-rule="nonzero"/><path fill="#e9951c" d="M 140.164062 170.429688 L 133.808594 170.429688 L 133.808594 164.066406 L 140.164062 164.066406 L 140.164062 170.429688 " fill-opacity="1" fill-rule="nonzero"/><path fill="#e9951c" d="M 225.949219 173.613281 L 219.59375 173.613281 L 219.59375 167.246094 L 225.949219 167.246094 L 225.949219 173.613281 " fill-opacity="1" fill-rule="nonzero"/><g clip-path="url(#266bb3a40f)"><path fill="#3c5944" d="M 200.257812 234.089844 C 205.464844 237.808594 210.949219 241.121094 216.648438 243.976562 C 218.214844 244.761719 218.851562 246.671875 218.066406 248.246094 C 217.511719 249.363281 216.390625 250.007812 215.222656 250.007812 C 214.746094 250.007812 214.261719 249.898438 213.804688 249.667969 C 207.664062 246.59375 201.757812 243.007812 196.164062 238.980469 L 196.164062 234.089844 L 200.257812 234.089844 " fill-opacity="1" fill-rule="nonzero"/></g><g clip-path="url(#bdecb706ac)"><path fill="#3c5944" d="M 255.328125 234.089844 C 260.863281 237.875 266.746094 241.167969 272.914062 243.914062 C 274.515625 244.628906 275.238281 246.507812 274.527344 248.117188 C 274 249.300781 272.839844 250.007812 271.621094 250.007812 C 271.1875 250.007812 270.75 249.917969 270.332031 249.730469 C 261.105469 245.621094 252.476562 240.355469 244.644531 234.089844 L 255.328125 234.089844 " fill-opacity="1" fill-rule="nonzero"/></g><path fill="#4e7658" d="M 121.101562 225.734375 L 122.792969 224.625 C 131.320312 219.035156 138.910156 210.9375 145.285156 202.972656 L 156.050781 189.527344 L 196.164062 234.089844 L 196.164062 246.820312 L 121.101562 246.820312 L 121.101562 225.734375 " fill-opacity="1" fill-rule="nonzero"/><path fill="#3c5944" d="M 175.113281 246.820312 L 136.984375 246.820312 L 156.050781 214.992188 Z M 175.113281 246.820312 " fill-opacity="1" fill-rule="nonzero"/><path fill="#5e9069" d="M 156.050781 214.992188 L 181.46875 230.90625 L 175.113281 246.820312 Z M 156.050781 214.992188 " fill-opacity="1" fill-rule="nonzero"/><path fill="#80c38a" d="M 255.011719 234.089844 L 196.078125 234.089844 C 187.648438 227.632812 180.039062 220.117188 173.441406 211.707031 L 156.050781 189.527344 L 165.21875 191.199219 C 182.210938 194.296875 199.664062 193.726562 216.417969 189.527344 L 230 208.582031 C 236.992188 218.382812 245.441406 226.976562 255.011719 234.089844 " fill-opacity="1" fill-rule="nonzero"/><g clip-path="url(#f76ddbb24d)"><path fill="#7d421a" d="M 283.140625 250.003906 L 92.503906 250.003906 L 92.503906 243.640625 L 283.140625 243.640625 L 283.140625 250.003906 " fill-opacity="1" fill-rule="nonzero"/></g><g fill="#e8fcee" fill-opacity="1"><g transform="translate(45.396028, 311.708345)"><g><path d="M 12.015625 0.390625 C 8.140625 0.390625 5.34375 -0.566406 3.625 -2.484375 C 1.90625 -4.398438 1.046875 -7.492188 1.046875 -11.765625 L 1.046875 -15.9375 L 9.4375 -15.9375 L 9.4375 -10.625 C 9.4375 -8.507812 10.113281 -7.453125 11.46875 -7.453125 C 12.226562 -7.453125 12.753906 -7.671875 13.046875 -8.109375 C 13.347656 -8.554688 13.5 -9.3125 13.5 -10.375 C 13.5 -11.757812 13.332031 -12.90625 13 -13.8125 C 12.675781 -14.726562 12.253906 -15.492188 11.734375 -16.109375 C 11.222656 -16.722656 10.304688 -17.675781 8.984375 -18.96875 L 5.3125 -22.640625 C 2.46875 -25.421875 1.046875 -28.5 1.046875 -31.875 C 1.046875 -35.507812 1.878906 -38.273438 3.546875 -40.171875 C 5.222656 -42.078125 7.664062 -43.03125 10.875 -43.03125 C 14.707031 -43.03125 17.46875 -42.015625 19.15625 -39.984375 C 20.84375 -37.953125 21.6875 -34.769531 21.6875 -30.4375 L 13 -30.4375 L 12.953125 -33.359375 C 12.953125 -33.921875 12.796875 -34.363281 12.484375 -34.6875 C 12.171875 -35.019531 11.734375 -35.1875 11.171875 -35.1875 C 10.503906 -35.1875 10.003906 -35.003906 9.671875 -34.640625 C 9.347656 -34.285156 9.1875 -33.789062 9.1875 -33.15625 C 9.1875 -31.769531 9.976562 -30.332031 11.5625 -28.84375 L 16.53125 -24.078125 C 17.6875 -22.953125 18.644531 -21.882812 19.40625 -20.875 C 20.164062 -19.863281 20.773438 -18.671875 21.234375 -17.296875 C 21.703125 -15.921875 21.9375 -14.289062 21.9375 -12.40625 C 21.9375 -8.207031 21.164062 -5.023438 19.625 -2.859375 C 18.09375 -0.691406 15.554688 0.390625 12.015625 0.390625 Z M 12.015625 0.390625 "/></g></g></g><g fill="#e8fcee" fill-opacity="1"><g transform="translate(68.273734, 311.708345)"><g><path d="M 11.765625 0.390625 C 8.253906 0.390625 5.644531 -0.597656 3.9375 -2.578125 C 2.238281 -4.566406 1.390625 -7.515625 1.390625 -11.421875 L 1.390625 -42.640625 L 9.6875 -42.640625 L 9.6875 -11.765625 C 9.6875 -10.410156 9.816406 -9.351562 10.078125 -8.59375 C 10.335938 -7.832031 10.898438 -7.453125 11.765625 -7.453125 C 12.628906 -7.453125 13.191406 -7.820312 13.453125 -8.5625 C 13.710938 -9.3125 13.84375 -10.378906 13.84375 -11.765625 L 13.84375 -42.640625 L 22.140625 -42.640625 L 22.140625 -11.421875 C 22.140625 -7.515625 21.285156 -4.566406 19.578125 -2.578125 C 17.878906 -0.597656 15.273438 0.390625 11.765625 0.390625 Z M 11.765625 0.390625 "/></g></g></g><g fill="#e8fcee" fill-opacity="1"><g transform="translate(91.796591, 311.708345)"><g><path d="M 1.890625 0 L 1.890625 -42.640625 L 14.890625 -42.640625 L 18.46875 -16.625 L 22.046875 -42.640625 L 35.140625 -42.640625 L 35.140625 0 L 27.359375 0 L 27.359375 -30.734375 L 22.4375 0 L 14.796875 0 L 9.578125 -30.734375 L 9.578125 0 Z M 1.890625 0 "/></g></g></g><g fill="#e8fcee" fill-opacity="1"><g transform="translate(128.817784, 311.708345)"><g><path d="M 1.890625 0 L 1.890625 -42.640625 L 14.890625 -42.640625 L 18.46875 -16.625 L 22.046875 -42.640625 L 35.140625 -42.640625 L 35.140625 0 L 27.359375 0 L 27.359375 -30.734375 L 22.4375 0 L 14.796875 0 L 9.578125 -30.734375 L 9.578125 0 Z M 1.890625 0 "/></g></g></g><g fill="#e8fcee" fill-opacity="1"><g transform="translate(165.838976, 311.708345)"><g><path d="M 1.890625 0 L 1.890625 -42.640625 L 18.96875 -42.640625 L 18.96875 -34.40625 L 10.578125 -34.40625 L 10.578125 -26.109375 L 18.609375 -26.109375 L 18.609375 -18.0625 L 10.578125 -18.0625 L 10.578125 -8.296875 L 19.515625 -8.296875 L 19.515625 0 Z M 1.890625 0 "/></g></g></g><g fill="#e8fcee" fill-opacity="1"><g transform="translate(186.284996, 311.708345)"><g><path d="M 1.890625 -42.640625 L 14.984375 -42.640625 C 17.078125 -42.640625 18.691406 -42.164062 19.828125 -41.21875 C 20.972656 -40.28125 21.742188 -38.957031 22.140625 -37.25 C 22.535156 -35.550781 22.734375 -33.378906 22.734375 -30.734375 C 22.734375 -28.316406 22.414062 -26.425781 21.78125 -25.0625 C 21.15625 -23.707031 20.066406 -22.765625 18.515625 -22.234375 C 19.804688 -21.972656 20.738281 -21.328125 21.3125 -20.296875 C 21.894531 -19.273438 22.1875 -17.890625 22.1875 -16.140625 L 22.09375 0 L 13.75 0 L 13.75 -16.671875 C 13.75 -17.867188 13.515625 -18.628906 13.046875 -18.953125 C 12.585938 -19.285156 11.75 -19.453125 10.53125 -19.453125 L 10.53125 0 L 1.890625 0 Z M 12.609375 -26.859375 C 13.796875 -26.859375 14.390625 -28.148438 14.390625 -30.734375 C 14.390625 -31.859375 14.335938 -32.703125 14.234375 -33.265625 C 14.140625 -33.828125 13.957031 -34.210938 13.6875 -34.421875 C 13.425781 -34.640625 13.050781 -34.75 12.5625 -34.75 L 10.578125 -34.75 L 10.578125 -26.859375 Z M 12.609375 -26.859375 "/></g></g></g><g fill="#e8fcee" fill-opacity="1"><g transform="translate(209.956725, 311.708345)"><g/></g></g><g fill="#e8fcee" fill-opacity="1"><g transform="translate(221.569266, 311.708345)"><g><path d="M 11.8125 0.390625 C 8.695312 0.390625 6.203125 -0.582031 4.328125 -2.53125 C 2.460938 -4.476562 1.53125 -7.160156 1.53125 -10.578125 L 1.53125 -30.234375 C 1.53125 -34.460938 2.375 -37.648438 4.0625 -39.796875 C 5.757812 -41.953125 8.410156 -43.03125 12.015625 -43.03125 C 15.160156 -43.03125 17.691406 -42.171875 19.609375 -40.453125 C 21.523438 -38.734375 22.484375 -36.253906 22.484375 -33.015625 L 22.484375 -25.671875 L 14 -25.671875 L 14 -31.96875 C 14 -33.195312 13.847656 -34.039062 13.546875 -34.5 C 13.253906 -34.957031 12.742188 -35.1875 12.015625 -35.1875 C 11.253906 -35.1875 10.734375 -34.921875 10.453125 -34.390625 C 10.171875 -33.867188 10.03125 -33.09375 10.03125 -32.0625 L 10.03125 -10.671875 C 10.03125 -9.546875 10.191406 -8.726562 10.515625 -8.21875 C 10.847656 -7.707031 11.347656 -7.453125 12.015625 -7.453125 C 13.335938 -7.453125 14 -8.523438 14 -10.671875 L 14 -18.359375 L 22.59375 -18.359375 L 22.59375 -10.328125 C 22.59375 -3.179688 19 0.390625 11.8125 0.390625 Z M 11.8125 0.390625 "/></g></g></g><g fill="#e8fcee" fill-opacity="1"><g transform="translate(245.092123, 311.708345)"><g><path d="M 0.75 0 L 4.859375 -42.640625 L 19.3125 -42.640625 L 23.375 0 L 15.296875 0 L 14.6875 -6.90625 L 9.53125 -6.90625 L 9.03125 0 Z M 10.171875 -13.703125 L 14.046875 -13.703125 L 12.15625 -35.390625 L 11.765625 -35.390625 Z M 10.171875 -13.703125 "/></g></g></g><g fill="#e8fcee" fill-opacity="1"><g transform="translate(269.160858, 311.708345)"><g><path d="M 1.890625 0 L 1.890625 -42.640625 L 14.890625 -42.640625 L 18.46875 -16.625 L 22.046875 -42.640625 L 35.140625 -42.640625 L 35.140625 0 L 27.359375 0 L 27.359375 -30.734375 L 22.4375 0 L 14.796875 0 L 9.578125 -30.734375 L 9.578125 0 Z M 1.890625 0 "/></g></g></g><g fill="#e8fcee" fill-opacity="1"><g transform="translate(306.182035, 311.708345)"><g><path d="M 1.890625 -42.640625 L 13.15625 -42.640625 C 16.5625 -42.640625 18.992188 -41.539062 20.453125 -39.34375 C 21.910156 -37.144531 22.640625 -33.925781 22.640625 -29.6875 C 22.640625 -25.445312 21.992188 -22.25 20.703125 -20.09375 C 19.410156 -17.945312 17.09375 -16.875 13.75 -16.875 L 10.28125 -16.875 L 10.28125 0 L 1.890625 0 Z M 10.765625 -24.578125 C 11.796875 -24.578125 12.550781 -24.765625 13.03125 -25.140625 C 13.507812 -25.523438 13.820312 -26.070312 13.96875 -26.78125 C 14.125 -27.488281 14.203125 -28.503906 14.203125 -29.828125 C 14.203125 -31.617188 14 -32.910156 13.59375 -33.703125 C 13.195312 -34.492188 12.40625 -34.890625 11.21875 -34.890625 L 10.28125 -34.890625 L 10.28125 -24.578125 Z M 10.765625 -24.578125 "/></g></g></g><g fill="#e8fcee" fill-opacity="1"><g transform="translate(143.633749, 101.503497)"><g><path d="M 0.75 0 L 4.859375 -42.640625 L 19.3125 -42.640625 L 23.375 0 L 15.296875 0 L 14.6875 -6.90625 L 9.53125 -6.90625 L 9.03125 0 Z M 10.171875 -13.703125 L 14.046875 -13.703125 L 12.15625 -35.390625 L 11.765625 -35.390625 Z M 10.171875 -13.703125 "/></g></g></g><g fill="#e8fcee" fill-opacity="1"><g transform="translate(167.702484, 101.503497)"><g><path d="M 1.890625 0 L 1.890625 -42.640625 L 10.421875 -42.640625 L 10.421875 -7.25 L 19.203125 -7.25 L 19.203125 0 Z M 1.890625 0 "/></g></g></g><g fill="#e8fcee" fill-opacity="1"><g transform="translate(187.404108, 101.503497)"><g><path d="M 1.890625 0 L 1.890625 -42.640625 L 18.96875 -42.640625 L 18.96875 -34.40625 L 10.578125 -34.40625 L 10.578125 -26.109375 L 18.609375 -26.109375 L 18.609375 -18.0625 L 10.578125 -18.0625 L 10.578125 -8.296875 L 19.515625 -8.296875 L 19.515625 0 Z M 1.890625 0 "/></g></g></g><g fill="#e8fcee" fill-opacity="1"><g transform="translate(207.850128, 101.503497)"><g><path d="M 11.765625 0.390625 C 8.253906 0.390625 5.644531 -0.597656 3.9375 -2.578125 C 2.238281 -4.566406 1.390625 -7.515625 1.390625 -11.421875 L 1.390625 -42.640625 L 9.6875 -42.640625 L 9.6875 -11.765625 C 9.6875 -10.410156 9.816406 -9.351562 10.078125 -8.59375 C 10.335938 -7.832031 10.898438 -7.453125 11.765625 -7.453125 C 12.628906 -7.453125 13.191406 -7.820312 13.453125 -8.5625 C 13.710938 -9.3125 13.84375 -10.378906 13.84375 -11.765625 L 13.84375 -42.640625 L 22.140625 -42.640625 L 22.140625 -11.421875 C 22.140625 -7.515625 21.285156 -4.566406 19.578125 -2.578125 C 17.878906 -0.597656 15.273438 0.390625 11.765625 0.390625 Z M 11.765625 0.390625 "/></g></g></g></svg>